<svg xmlns="http://www.w3.org/2000/svg" viewBox="0 0 1280 420">
  <defs>
    <linearGradient id="g" x1="0" y1="0" x2="1" y2="1">
      <stop offset="0" stop-color="#0d1226"/>
      <stop offset="0.5" stop-color="#1a2240"/>
      <stop offset="1" stop-color="#131a2e"/>
    </linearGradient>
    <linearGradient id="a" x1="0" y1="0" x2="1" y2="0">
      <stop offset="0" stop-color="#8b5cf6"/>
      <stop offset="0.5" stop-color="#ec4899"/>
      <stop offset="1" stop-color="#22d3ee"/>
    </linearGradient>
  </defs>
  <rect width="1280" height="420" fill="url(#g)"/>
  <g opacity="0.12" stroke="#22d3ee" stroke-width="1">
    <path d="M0 70 H1280 M0 140 H1280 M0 210 H1280 M0 280 H1280 M0 350 H1280"/>
    <path d="M128 0 V420 M256 0 V420 M384 0 V420 M512 0 V420 M640 0 V420 M768 0 V420 M896 0 V420 M1024 0 V420 M1152 0 V420"/>
  </g>
  <path d="M0 340 L160 300 L320 330 L480 260 L640 310 L800 240 L960 300 L1120 250 L1280 290 V420 H0 Z" fill="#8b5cf6" opacity="0.18"/>
  <path d="M0 370 L200 330 L400 360 L600 300 L800 350 L1000 290 L1280 340 V420 H0 Z" fill="#22d3ee" opacity="0.14"/>
  <g transform="translate(640 170)">
    <rect x="-100" y="-54" width="200" height="108" rx="48" fill="none" stroke="url(#a)" stroke-width="8"/>
    <path d="M-54 -12 v24 M-66 0 h24" stroke="#22d3ee" stroke-width="8" stroke-linecap="round"/>
    <circle cx="42" cy="-12" r="9" fill="#ec4899"/>
    <circle cx="66" cy="12" r="9" fill="#facc15"/>
  </g>
  <text x="640" y="300" text-anchor="middle" font-family="monospace" font-size="26" fill="#94a3b8">BANNER EM BREVE</text>
</svg>
